# xmcd
#
# Track frame offsets:
#	150
#	13237
#	25950
#	39862
#	60337
#	75337
#	89027
#	108787
#	128212
#	148687
#	172725
#	186075
#	207025
#	231487
#
# Disc length: 3216 seconds
#
# Revision: 2
# Processed by: cddbd v1.4PL0 Copyright (c) Steve Scherf et al.
# Submitted via: EasyCDDAExtractor 4.6.9.1
#
DISCID=ae0c8e0e
DTITLE=The Klezmer Conservatory Band - Dancing in the Aisles
DYEAR=1997
DGENRE=Blues
TTITLE0=Freylekh Jamboree
TTITLE1=Oy, S'iz Gut  (Oh, It's Good)
TTITLE2=Farges Mikh Nit (Don't Forget Me)
TTITLE3=Doyne/Freyleks
TTITLE4=Kol Rina (The Voice of Joy)
TTITLE5=Gimpel the Fool
TTITLE6=Mayn Freylekh Lid (My Joyful Song)
TTITLE7=Miserlou
TTITLE8=Meron Nign (Tune from Meron)
TTITLE9=Slow Hora/Freyleks
TTITLE10=Mayn Yiddishe Meydele
TTITLE11=Freylekh Fantastique
TTITLE12=Hopkele - Dancing in the Aisles
TTITLE13=In Memoriam: For Yitzhak Rabin
EXTD=
EXTT0=
EXTT1=
EXTT2=
EXTT3=
EXTT4=
EXTT5=
EXTT6=
EXTT7=
EXTT8=
EXTT9=
EXTT10=
EXTT11=
EXTT12=
EXTT13=
PLAYORDER=
